Coordinates
version=1
nRows=54
nColumns=12
inDegrees=yes

Units are S.I. units (second, meters, Newtons, ...)
Angles are in degrees

endheader
time	SC_y	SC_z	SC_x	AC_y	AC_z	AC_x	GH_y	GH_z	GH_yy	EL_x	PS_y
       0.0              -11.52          17.78          56.64          54.45         -5.424         -11.24           21.7          58.14          126.1          54.12           70.6
   0.01045              -11.52          17.78          56.64          54.45         -5.425         -11.24          21.69          58.14          126.0          54.13          70.61
   0.02089              -11.52          17.78          56.65          54.44         -5.425         -11.24          21.68          58.15          126.0          54.14          70.61
   0.03134              -11.53          17.78          56.65          54.44         -5.426         -11.24          21.66          58.15          126.0          54.15          70.62
   0.04178              -11.53          17.77          56.66          54.44         -5.427         -11.24          21.65          58.16          125.9          54.16          70.62
   0.05223              -11.53          17.77          56.66          54.43         -5.428         -11.24          21.64          58.16          125.9          54.17          70.63
   0.06268              -11.54          17.77          56.67          54.43         -5.428         -11.24          21.62          58.17          125.8          54.18          70.63
   0.07312              -11.54          17.76          56.68          54.42         -5.429         -11.24           21.6          58.18          125.7          54.19          70.64
   0.08357              -11.54          17.76          56.68          54.42          -5.43         -11.24          21.58          58.18          125.7          54.21          70.64
   0.09402              -11.55          17.76          56.69          54.41         -5.431         -11.24          21.57          58.19          125.6          54.22          70.65
    0.1045              -11.55          17.75           56.7           54.4         -5.432         -11.24          21.54           58.2          125.5          54.23          70.66
    0.1149              -11.55          17.75           56.7           54.4         -5.434         -11.24          21.52          58.21          125.5          54.25          70.67
    0.1254              -11.56          17.74          56.71          54.39         -5.435         -11.24           21.5          58.22          125.4          54.27          70.67
    0.1358              -11.57          17.74          56.72          54.38         -5.436         -11.24          21.47          58.23          125.3          54.29          70.68
    0.1462              -11.57          17.73          56.73          54.37         -5.438         -11.24          21.44          58.24          125.2          54.31          70.69
    0.1567              -11.58          17.72          56.74          54.36         -5.439         -11.24          21.41          58.25          125.1          54.33           70.7
    0.1671              -11.58          17.72          56.76          54.35         -5.441         -11.24          21.38          58.26          125.0          54.35          70.72
    0.1776              -11.59          17.71          56.77          54.34         -5.443         -11.24          21.34          58.27          124.8          54.38          70.73
     0.188               -11.6           17.7          56.78          54.33         -5.445         -11.24           21.3          58.29          124.7          54.41          70.74
    0.1985              -11.61          17.69           56.8          54.32         -5.447         -11.25          21.26          58.31          124.5          54.44          70.76
    0.2089              -11.62          17.68          56.81           54.3          -5.45         -11.25          21.21          58.32          124.4          54.47          70.77
    0.2194              -11.63          17.67          56.83          54.29         -5.452         -11.25          21.16          58.34          124.2          54.51          70.79
    0.2298              -11.64          17.66          56.85          54.27         -5.455         -11.25           21.1          58.36          124.0          54.55          70.81
    0.2403              -11.65          17.65          56.88          54.25         -5.459         -11.25          21.03          58.39          123.8           54.6          70.84
    0.2507              -11.67          17.63           56.9          54.23         -5.462         -11.25          20.96          58.42          123.5          54.65          70.86
    0.2612              -11.68          17.62          56.93          54.21         -5.466         -11.25          20.88          58.45          123.2          54.71          70.89
    0.2716               -11.7           17.6          56.96          54.18         -5.471         -11.25          20.79          58.48          122.9          54.77          70.92
     0.282              -11.72          17.58           57.0          54.15         -5.476         -11.25          20.69          58.52          122.6          54.85          70.95
    0.2925              -11.74          17.55          57.04          54.12         -5.482         -11.25          20.57          58.56          122.2          54.93          70.99
    0.3029              -11.77          17.53          57.09          54.08         -5.489         -11.26          20.44          58.61          121.7          55.02          71.04
    0.3134               -11.8          17.49          57.14          54.04         -5.496         -11.26          20.29          58.66          121.2          55.13          71.09
    0.3238              -11.83          17.46           57.2          53.98         -5.505         -11.26          20.12          58.73          120.6          55.25          71.15
    0.3343              -11.87          17.42          57.27          53.93         -5.515         -11.26          19.93           58.8          119.9          55.39          71.22
    0.3447              -11.92          17.37          57.35          53.86         -5.527         -11.27           19.7          58.88          119.1          55.55          71.29
    0.3552              -11.97          17.32          57.44          53.78         -5.541         -11.27          19.43          58.98          118.2          55.74          71.39
    0.3656              -12.04          17.25          57.55          53.69         -5.557         -11.27          19.12           59.1          117.1          55.97           71.5
    0.3761              -12.11          17.18          57.69          53.58         -5.576         -11.28          18.74          59.24          115.8          56.24          71.62
    0.3865               -12.2          17.08          57.85          53.44         -5.599         -11.28          18.29          59.41          114.2          56.56          71.78
     0.397              -12.31          16.97          58.04          53.28         -5.627         -11.29          17.75          59.61          112.3          56.95          71.97
    0.4074              -12.44          16.83          58.27          53.09         -5.661          -11.3          17.09          59.86          110.0          57.42           72.2
    0.4178               -12.6          16.67          58.56          52.85         -5.703         -11.31          16.27          60.16          107.2          58.01          72.48
    0.4283              -12.81          16.46          58.92          52.54         -5.756         -11.32          15.24          60.54          103.6          58.74          72.83
    0.4387              -13.07          16.19          59.38          52.16         -5.822         -11.34          13.96          61.02          99.12          59.66          73.27
    0.4492              -13.39          15.85          59.95          51.68         -5.906         -11.36          12.32          61.63          93.42          60.83          73.84
    0.4596              -13.81          15.42          60.69          51.06         -6.013         -11.39          10.23           62.4          86.13          62.33          74.56
    0.4701              -14.35          14.87          61.64          50.27         -6.151         -11.43           7.54           63.4          76.77          64.25          75.49
    0.4805              -15.03          14.17          62.86          49.25         -6.328         -11.47          4.108          64.68          64.81           66.7          76.67
     0.491               -15.9          13.28          64.38          47.98         -6.549         -11.53        -0.2082          66.28          49.78          69.79          78.16
    0.5014              -16.95           12.2          66.24          46.43         -6.819          -11.6         -5.468          68.24          31.47          73.55          79.97
    0.5119              -18.16          10.94          68.39          44.63         -7.132         -11.68         -11.56           70.5          10.24          77.91          82.07
    0.5223              -19.48          9.585          70.72          42.68         -7.471         -11.76         -18.17          72.96         -12.75          82.63          84.34
    0.5328               -20.8          8.227          73.06          40.73          -7.81         -11.85         -24.77          75.41         -35.74          87.35          86.62
    0.5432              -22.02          6.974          75.21          38.93         -8.123         -11.93         -30.86          77.67         -56.97          91.71          88.72
    0.5536              -23.07          5.892          77.07          37.37         -8.393          -12.0         -36.12          79.63         -75.29          95.47          90.53
